<?xml version="1.0" encoding="UTF-8" standalone="no"?>
<svg width="205px" height="104px" viewBox="0 0 205 104" version="1.1" xmlns="http://www.w3.org/2000/svg" xmlns:xlink="http://www.w3.org/1999/xlink">
    <!-- Generator: Sketch 40.2 (33826) - http://www.bohemiancoding.com/sketch -->
    <title>LP Logo (CMYK) - White Text</title>
    <desc>Created with Sketch.</desc>
    <defs></defs>
    <g id="Finals" stroke="none" stroke-width="1" fill="none" fill-rule="evenodd">
        <g id="LP-preloader" transform="translate(-798.000000, -509.000000)" fill="#000000">
            <path d="M899.760397,606.380634 C880.349282,606.380634 863.880651,594.020431 857.761055,576.465294 L855.203781,577.345866 L852.663142,578.240743 C859.348298,598.113083 877.903194,612.17096 899.774404,612.17096 C921.530927,612.17096 940.105959,597.968258 946.897923,578.320308 L941.829777,576.386623 C935.660278,593.825542 919.114605,606.380634 899.760397,606.380634 L899.760397,606.380634 Z M899.798042,514.899391 C919.212659,514.899391 935.680414,527.483091 941.803513,545.368108 L944.35816,544.469655 L946.897923,543.556899 C940.213643,523.317132 921.66575,509 899.783159,509 C878.029263,509 859.453355,523.464639 852.663142,543.477334 L857.733915,545.44499 C863.89641,527.682449 880.441207,514.899391 899.798042,514.899391 L899.798042,514.899391 Z M975.329971,559.525217 C976.547762,555.049046 982.869594,554.855945 984.27999,559.525217 L975.329971,559.525217 L975.329971,559.525217 Z M939.605185,565.774155 C937.022523,565.774155 934.928378,563.625915 934.928378,560.997606 C934.928378,558.366615 937.022523,556.221057 939.605185,556.221057 C942.178217,556.221057 944.277616,558.366615 944.277616,560.997606 C944.277616,563.625915 942.178217,565.774155 939.605185,565.774155 L939.605185,565.774155 Z M912.320015,565.774155 C909.740854,565.774155 907.637954,563.625915 907.637954,560.997606 C907.637954,558.366615 909.740854,556.221057 912.320015,556.221057 C914.893047,556.221057 916.992445,558.366615 916.992445,560.997606 C916.992445,563.625915 914.893047,565.774155 912.320015,565.774155 L912.320015,565.774155 Z M1002.00668,563.680448 L1001.67488,563.979038 C1000.36516,565.066121 998.418972,564.731771 997.736974,563.233457 C997.037467,561.087004 997.399915,558.780529 997.399915,556.496403 L1001.92089,556.496403 L1001.92089,549.749516 L997.399915,549.749516 L997.399915,545.1464 L990.264763,545.1464 L990.264763,556.86383 C988.978685,553.701814 987.035998,551.880771 983.984079,550.450399 C977.864482,548.23511 972.016284,550.840175 969.321561,556.86383 C968.261356,553.701814 966.657479,551.764553 963.6791,550.333287 C957.762615,548.210972 952.06675,550.725746 950.011126,556.86383 C948.387113,553.008977 946.035577,550.981425 941.995242,549.850537 C936.55064,548.927052 931.920233,551.348851 929.526674,556.377504 L929.526674,540.623742 L922.135883,540.623742 L922.135883,556.377504 C921.213128,554.48673 920.215958,553.14665 918.617333,551.810146 C911.046193,546.203087 901.08237,551.789585 900.90027,561.221102 L900.90027,581.198038 L908.267424,581.198038 C908.267424,579.188365 908.039799,571.368699 908.039799,571.368699 L908.853994,571.717352 C914.366009,573.145936 919.991835,570.307541 922.135883,565.905571 L922.135883,572.684641 L929.526674,572.684641 L929.526674,565.905571 C931.648835,570.514051 935.712807,573.167392 940.74681,572.797283 C943.075583,572.951942 945.020021,566.662774 945.027025,568.409616 L945.030527,572.797283 L949.967352,572.797283 L957.148904,572.684641 L957.148904,558.827016 C957.148904,555.94571 961.779311,555.697183 962.020068,558.646432 C962.076974,563.17803 962.064717,568.234395 962.064717,572.684641 L969.321561,572.684641 L969.321561,565.4407 C970.658417,568.535668 972.441767,570.328997 975.40176,571.80675 C981.255211,573.753844 987.3608,572.803541 989.644049,565.513112 L983.471048,564.492184 C982.053648,566.663668 976.983751,567.127645 975.378123,562.811497 L990.264763,562.811497 C990.264763,566.390109 990.33305,569.103347 993.496155,571.453627 C996.661011,573.808377 1002.34725,571.547495 1002.27983,570.023255 L1002.00668,563.680448 L1002.00668,563.680448 Z M860.21152,559.904265 L851.131054,559.904265 C852.5397,555.190295 858.750346,555.108048 860.21152,559.904265 L860.21152,559.904265 Z M815.39051,565.648104 C812.8131,565.648104 810.71808,563.498075 810.71808,560.868872 C810.71808,558.238776 812.8131,556.092323 815.39051,556.092323 C817.96967,556.092323 820.067317,558.238776 820.067317,560.868872 C820.067317,563.498075 817.96967,565.648104 815.39051,565.648104 L815.39051,565.648104 Z M865.150095,565.778625 L859.035752,564.837261 C855.94181,567.229559 852.411004,565.989605 851.292142,562.811497 L866.147266,562.811497 L866.147266,572.684641 L873.530178,572.684641 L873.530178,567.610396 C874.753222,572.63726 880.829044,574.345661 884.281932,570.587358 C884.281932,571.69232 884.16812,572.985913 883.831936,574.047964 C882.725331,576.764778 879.026434,576.764778 877.110011,574.945523 L872.755379,580.690255 C875.532398,582.927 878.344436,584.007825 881.934774,583.66543 C884.894768,583.364158 886.77442,582.829556 889.030529,580.75641 C890.744717,578.797694 891.559787,576.764778 891.669222,574.139151 L891.669222,549.622571 L884.41413,549.622571 L884.41413,563.642007 C884.41413,566.180023 880.774765,566.204161 880.774765,563.642007 L880.774765,549.622571 L873.530178,549.622571 L873.530178,540.623742 L866.147266,540.623742 L866.147266,556.86383 C863.772967,551.672473 859.285263,548.995889 853.660312,549.802261 C849.61385,550.725746 846.743155,553.008977 845.186554,556.86383 C843.785788,552.293791 840.485233,549.875568 835.88109,549.622571 C830.99942,549.622571 827.362682,552.064932 825.89713,556.86383 C823.432658,551.327396 818.508965,548.650812 812.639756,550.010559 C809.114203,551.138765 806.987665,553.033115 805.384663,556.377504 L805.384663,540.623742 L798,540.623742 L798,572.684641 L805.384663,572.684641 L805.384663,565.488975 C807.485812,569.780985 810.990354,572.152721 815.683795,572.247483 C820.677526,571.947999 823.882654,569.5262 825.89713,565.004436 L825.89713,572.684641 L833.010395,572.684641 L833.010395,558.852048 C833.283544,555.830386 837.780003,555.740094 838.054028,558.852048 L838.054028,572.684641 L845.186554,572.684641 L845.186554,565.4407 C846.831578,569.154304 849.408112,571.39373 853.276853,572.407506 C861.747109,573.224606 865.10282,567.277834 865.150095,565.778625 L865.150095,565.778625 Z" id="LP-Logo-(CMYK)---White-Text"></path>
        </g>
    </g>
</svg>