<?xml version="1.0" encoding="utf-8"?>
<!-- Generator: Adobe Illustrator 19.0.0, SVG Export Plug-In . SVG Version: 6.00 Build 0)  -->
<svg version="1.1" id="Layer_1" xmlns="http://www.w3.org/2000/svg" xmlns:xlink="http://www.w3.org/1999/xlink" x="0px" y="0px"
	 viewBox="0 0 42 42" style="enable-background:new 0 0 42 42;" xml:space="preserve">
<g id="XMLID_2_">
	<path id="XMLID_7_" d="M21.3,19.4c-1.3,0-2.4,1-2.4,2.7c0,1.7,1,2.8,2.4,2.8c1.4,0,2.4-1,2.4-2.8C23.7,20.4,22.7,19.4,21.3,19.4z"
		/>
	<path id="XMLID_10_" d="M21,0C9.4,0,0,9.4,0,21c0,11.6,9.4,21,21,21s21-9.4,21-21C42,9.4,32.6,0,21,0z M21.7,26.8
		c-1.2,0-2.2-0.5-2.7-1.4v1.2h-2v-13H19v5.3c0.4-0.7,1.4-1.3,2.8-1.3c2.6,0,4.1,2,4.1,4.6C25.8,24.8,24.2,26.8,21.7,26.8z"/>
</g>
</svg>
