<?xml version="1.0" encoding="UTF-8" standalone="no"?>
<svg width="30px" height="30px" viewBox="0 0 30 30" version="1.1" xmlns="http://www.w3.org/2000/svg" xmlns:xlink="http://www.w3.org/1999/xlink">
    <!-- Generator: Sketch 40.1 (33804) - http://www.bohemiancoding.com/sketch -->
    <title>Page 1</title>
    <desc>Created with Sketch.</desc>
    <defs>
        <polygon id="path-1" points="14.99955 29.9991 29.999 29.9991 29.999 0.0001 14.99955 0.0001 0.0001 0.0001 0.0001 29.9991"></polygon>
    </defs>
    <g id="Finals" stroke="none" stroke-width="1" fill="none" fill-rule="evenodd" opacity="0.79844916">
        <g id="Nav-EXPANDED" transform="translate(-887.000000, -941.000000)">
            <g id="Group-2" transform="translate(795.000000, 941.000000)">
                <g id="Page-1" transform="translate(92.000000, 0.000000)">
                    <mask id="mask-2" fill="white">
                        <use xlink:href="#path-1"></use>
                    </mask>
                    <g id="Clip-2"></g>
                    <path d="M21.9561,24.7471 C21.7991,23.8631 21.1191,20.4981 19.4651,16.2131 C22.6301,15.8281 25.4001,16.3111 26.8711,16.6801 C26.4011,20.0021 24.5671,22.8791 21.9561,24.7471 M14.9991,27.0001 C12.1261,27.0001 9.5231,25.9471 7.4581,24.2641 C10.0991,19.8121 13.5861,17.6371 16.9531,16.7011 C18.1501,19.5571 19.2031,22.6761 19.8081,25.9821 C18.3341,26.6291 16.7131,27.0001 14.9991,27.0001 M3.0001,15.0001 C3.0001,14.7661 3.0371,14.5431 3.0501,14.3121 C5.3301,14.4931 9.4351,14.3301 14.8821,12.2261 C15.2761,12.9821 15.6631,13.7991 16.0471,14.6211 C10.3101,16.2481 7.1021,20.3791 5.7671,22.5801 C4.0641,20.5081 3.0001,17.8921 3.0001,15.0001 M9.8981,4.1781 C10.8081,5.4141 12.3081,7.6081 13.8891,10.4101 C10.4281,11.6501 6.4161,12.1761 3.3731,12.1481 C4.2461,8.6151 6.6701,5.7021 9.8981,4.1781 M14.9991,3.0001 C17.7871,3.0001 20.3201,3.9901 22.3571,5.5841 C21.4111,6.4001 19.3761,7.9491 16.2671,9.4181 C15.1201,7.3961 13.7701,5.3461 12.1581,3.3751 C13.0731,3.1521 14.0151,3.0001 14.9991,3.0001 M26.9771,14.7581 C23.7911,13.9451 21.0101,13.7991 18.5961,14.1081 C18.1851,13.1671 17.7461,12.2081 17.2411,11.2231 C19.3741,10.2371 21.6751,8.9501 24.1281,7.2941 C25.8441,9.3241 26.9171,11.9061 26.9771,14.7581 M14.9991,0.0001 C6.7151,0.0001 0.0001,6.7161 0.0001,15.0001 C0.0001,23.2841 6.7151,29.9991 14.9991,29.9991 C23.2841,29.9991 29.9991,23.2841 29.9991,15.0001 C29.9991,6.7161 23.2841,0.0001 14.9991,0.0001" id="Fill-1" fill="#3C4042" mask="url(#mask-2)"></path>
                </g>
            </g>
        </g>
    </g>
</svg>