<?xml version="1.0" encoding="UTF-8" standalone="no"?>
<svg width="28px" height="28px" viewBox="0 0 28 28" version="1.1" xmlns="http://www.w3.org/2000/svg" xmlns:xlink="http://www.w3.org/1999/xlink">
    <!-- Generator: Sketch 40.1 (33804) - http://www.bohemiancoding.com/sketch -->
    <title>Page 1</title>
    <desc>Created with Sketch.</desc>
    <defs>
        <polygon id="path-1" points="27.9998 0 0 0 0 27.9999 27.9998 27.9999 27.9998 0"></polygon>
    </defs>
    <g id="Finals" stroke="none" stroke-width="1" fill="none" fill-rule="evenodd" opacity="0.79844916">
        <g id="Nav-EXPANDED" transform="translate(-977.000000, -943.000000)">
            <g id="Group-2" transform="translate(795.000000, 941.000000)">
                <g id="Page-1" transform="translate(182.000000, 2.000000)">
                    <mask id="mask-2" fill="white">
                        <use xlink:href="#path-1"></use>
                    </mask>
                    <g id="Clip-2"></g>
                    <path d="M23.9898,23.0069 L20.0628,23.0069 L20.0628,16.9069 C20.0628,15.3749 19.6188,14.3289 18.1978,14.3289 C17.1128,14.3289 16.4668,15.0339 16.1828,15.7149 C16.0798,15.9589 16.0538,16.2989 16.0538,16.6399 L16.0538,23.0069 L12.0028,23.0069 C12.0028,23.0069 12.0538,12.3519 12.0028,11.2829 L16.0538,11.2829 L16.0538,12.9009 C16.5748,12.1249 17.5038,11.0139 19.5928,11.0139 C22.1768,11.0139 23.9898,12.9669 23.9898,16.4709 L23.9898,23.0069 Z M5.1978,23.0069 L8.9918,23.0069 L8.9918,11.1989 L5.1978,11.1989 L5.1978,23.0069 Z M6.8998,5.9899 C8.0488,5.9899 8.7568,6.8479 8.7788,7.9749 C8.7788,9.0769 8.0488,9.9589 6.8778,9.9589 L6.8558,9.9589 C5.7278,9.9589 4.9988,9.0769 4.9988,7.9749 C4.9988,6.8479 5.7508,5.9899 6.8998,5.9899 L6.8998,5.9899 Z M25.3338,-0.0001 L2.6668,-0.0001 C1.1938,-0.0001 -0.0002,1.1959 -0.0002,2.6679 L-0.0002,25.3329 C-0.0002,26.8059 1.1938,27.9999 2.6668,27.9999 L25.3338,27.9999 C26.8058,27.9999 27.9998,26.8059 27.9998,25.3329 L27.9998,2.6679 C27.9998,1.1959 26.8058,-0.0001 25.3338,-0.0001 L25.3338,-0.0001 Z M16.0538,12.9349 L16.0538,12.9009 C16.0468,12.9109 16.0348,12.9239 16.0278,12.9349 L16.0538,12.9349 Z" id="Fill-1" fill="#3C4042" mask="url(#mask-2)"></path>
                </g>
            </g>
        </g>
    </g>
</svg>