<?xml version="1.0" encoding="UTF-8" standalone="no"?>
<svg width="32px" height="26px" viewBox="0 0 32 26" version="1.1" xmlns="http://www.w3.org/2000/svg" xmlns:xlink="http://www.w3.org/1999/xlink">
    <!-- Generator: Sketch 40.1 (33804) - http://www.bohemiancoding.com/sketch -->
    <title>Page 1</title>
    <desc>Created with Sketch.</desc>
    <defs>
        <polygon id="path-1" points="32 12.99565 32 25.991 0 25.991 0 12.99565 0 0.0003 32 0.0003"></polygon>
    </defs>
    <g id="Finals" stroke="none" stroke-width="1" fill="none" fill-rule="evenodd" opacity="0.79844916">
        <g id="Nav-EXPANDED" transform="translate(-795.000000, -943.000000)">
            <g id="Group-2" transform="translate(795.000000, 941.000000)">
                <g id="Page-1" transform="translate(0.000000, 2.000000)">
                    <mask id="mask-2" fill="white">
                        <use xlink:href="#path-1"></use>
                    </mask>
                    <g id="Clip-2"></g>
                    <path d="M29,3.9903 L31,0.0003 L28,1.9943 L27.417,2.2873 C26.224,0.8983 24.476,0.0003 22.5,0.0003 C18.91,0.0003 16,2.4043 16,5.9863 C16,6.4723 16.064,7.4413 16.165,7.8983 L16,7.9803 C16,7.9803 3,5.9863 2,0.9983 C2,0.9983 -1,5.9863 4,9.9753 C4,9.9753 2,10.9723 1,9.9753 C1,9.9753 1,12.9693 6,15.9613 C6,15.9613 4,16.9593 3,15.9613 C3,15.9613 7,19.9513 9,19.9513 C9,19.9513 9,22.9433 0,22.9433 C0,22.9433 11.379,30.4233 22,21.9473 C27.399,17.6373 28.714,12.1783 28.784,8.0603 C28.912,7.5533 29,7.0313 29,6.4843 L29,5.9863 L32,2.9923 L29,3.9903 Z" id="Fill-1" fill="#3C4042" mask="url(#mask-2)"></path>
                </g>
            </g>
        </g>
    </g>
</svg>